<?xml version="1.0" encoding="iso-8859-1"?>
<!-- Generator: Adobe Illustrator 19.0.0, SVG Export Plug-In . SVG Version: 6.00 Build 0)  -->
<svg version="1.1" id="Layer_1" xmlns="http://www.w3.org/2000/svg" xmlns:xlink="http://www.w3.org/1999/xlink" x="0px" y="0px"
	 viewBox="0 0 800 200" style="enable-background:new 0 0 800 200;" xml:space="preserve">
<polygon id="XMLID_42_" style="fill:#FFFFFF;" points="143,79.8 155.7,108.6 130.3,108.6 "/>
<path id="XMLID_45_" style="fill:#FFFFFF;" d="M0,0v200h800V0H0z M167.5,135.4l-7-15.9h-35l-7,15.9h-12.6l30.8-69.9h12.6l30.8,69.9
	H167.5z M246.3,130.5c-4.6,3.8-10.63,5.7-18.1,5.7c-10.93,0-20.63-3.77-29.1-11.3l7.4-8.9c7.07,6.13,14.4,9.2,22,9.2
	c3.8,0,6.82-0.82,9.05-2.45c2.24-1.63,3.35-3.8,3.35-6.5s-1.05-4.8-3.15-6.3s-5.71-2.87-10.85-4.1c-5.13-1.23-9.03-2.37-11.7-3.4
	c-2.66-1.03-5.03-2.38-7.1-4.05c-4.13-3.13-6.2-7.93-6.2-14.4c0-6.47,2.35-11.45,7.05-14.95s10.52-5.25,17.45-5.25
	c4.47,0,8.9,0.73,13.3,2.2c4.4,1.47,8.2,3.53,11.4,6.2l-6.3,8.9c-2.06-1.87-4.86-3.4-8.4-4.6c-3.53-1.2-7.02-1.8-10.45-1.8
	s-6.25,0.7-8.45,2.1s-3.3,3.52-3.3,6.35c0,2.83,1.1,5,3.3,6.5s6.88,3.12,14.05,4.85c7.17,1.73,12.57,4.17,16.2,7.3
	s5.45,7.75,5.45,13.85C253.2,121.75,250.9,126.7,246.3,130.5z M330.4,76.3h-21.2v59.1h-11.8V76.3h-21.2V65.5h54.2V76.3z M370,135.4
	h-11.8V65.5H370V135.4z M464.6,125.3c-6.6,7.27-16.04,10.9-28.3,10.9c-10.34,0-18.99-3.4-25.95-10.2
	c-6.97-6.8-10.45-15.4-10.45-25.8c0-10.4,3.55-19.07,10.65-26c7.1-6.93,15.68-10.4,25.75-10.4s18.43,2.93,25.1,8.8l-6.3,9
	c-2.73-2.33-5.48-3.95-8.25-4.85c-2.77-0.9-5.98-1.35-9.65-1.35c-7.07,0-13,2.28-17.8,6.85c-4.8,4.57-7.2,10.57-7.2,18
	s2.33,13.4,7,17.9s10.31,6.75,16.95,6.75c6.63,0,12.18-1.43,16.65-4.3v-19.2h11.8V125.3z M549.3,135.4h-11.8V65.5h11.8V135.4z
	 M647.9,135.4h-12.8l-39.6-51v51h-11.8V65.5h11.8l40.6,52.2V65.5h11.8V135.4z M694.1,135.4h-11.8V65.5h11.8V135.4z"/>
</svg>
